<svg width="2255" xmlns:ev="http://www.w3.org/2001/xml-events" viewBox="0 0 2255 2391" height="2391" xmlns="http://www.w3.org/2000/svg" xmlns:xlink="http://www.w3.org/1999/xlink"><style type="text/css"><![CDATA[
.st1 {fill:#000000;font-family:Arial;font-size:12pt}
.st2 {fill:#1f6391;font-family:Arial;font-size:26.25pt}
]]></style><defs><radialGradient cy="0" fy="0" fx="0" id="rg1" cx="0" r="151.3" gradientUnits="userSpaceOnUse"><stop offset="0" stop-color="#ffffff" stop-opacity="0.4"/><stop offset="0.86" stop-color="#ffffff" stop-opacity="0"/><stop offset="1" stop-color="#ffffff" stop-opacity="0"/></radialGradient><radialGradient cy="0" fy="0" fx="0" id="rg2" cx="0" r="122.2" gradientUnits="userSpaceOnUse"><stop offset="0" stop-color="#ffffff" stop-opacity="0.4"/><stop offset="0.7" stop-color="#ffffff" stop-opacity="0"/><stop offset="1" stop-color="#ffffff" stop-opacity="0"/></radialGradient></defs><g id="page1" transform="translate(5,5)"><rect fill="#fff9f4" width="2245" y="0" height="2381" stroke="#808080" x="0"/><path fill="none" id="shape1" transform="matrix(0.16,0.99,-0.99,0.16,1074.2,1505.9)" d="M0,-0L174.3,-0" stroke="#000000"/><g id="shape2" transform="matrix(0.35,0.94,-0.94,0.35,511.9,658.2)"><path fill="none" d="M0,-0L179.8,-0" stroke="#000000"/><text class="st1"><tspan y="-13.4" x="74.4">提升</tspan><tspan y="9.6" x="74.4">认知</tspan></text></g><g id="shape3" transform="matrix(-0.31,0.95,-0.95,-0.31,808.4,658.2)"><path fill="none" d="M0,-0L202.7,-0" stroke="#000000"/><text class="st1"><tspan y="-13.4" x="85.4">你的</tspan><tspan y="9.6" x="85.4">时薪</tspan></text></g><g id="shape4" transform="matrix(0.73,0.68,-0.68,0.73,746.4,851.2)"><path fill="none" d="M0,-0L384.7,-0" stroke="#000000"/><text class="st1"><tspan y="-24.9" x="144.9">生命是有时限</tspan><tspan y="-1.9" x="149.9">的,时间是不</tspan><tspan y="21.1" x="168.9">可逆的</tspan></text></g><g id="shape5" transform="matrix(0.99,0.14,-0.14,0.99,575,826.5)"><path fill="none" d="M0,-0L173.1,-0" stroke="#000000"/><text class="st1"><tspan y="-13.4" x="71.1">专注</tspan><tspan y="9.6" x="71.1">心流</tspan></text></g><path fill="none" id="shape6" transform="matrix(0.54,0.84,-0.84,0.54,1455.1,1153.3)" d="M0,-0L99.1,-0" stroke="#000000"/><path fill="none" id="shape7" transform="matrix(-0.81,0.59,-0.59,-0.81,1508.1,1237.1)" d="M0,-0L213.3,-0" stroke="#000000"/><path fill="none" id="shape8" transform="matrix(-0.15,0.99,-0.99,-0.15,1508.1,1237.1)" d="M0,-0L201.9,-0" stroke="#000000"/><g id="shape9" transform="matrix(0.97,0.25,-0.25,0.97,1028.1,1113.2)"><path fill="none" d="M0,-0L495.8,-0" stroke="#000000"/><text class="st1"><tspan y="-13.4" x="189.9">探索副业的方式:</tspan><tspan y="9.6" x="215.9">知行合一</tspan></text></g><g id="shape10" transform="matrix(0,1,-1,0,1028.1,1113.2)"><path fill="none" d="M0,-0L230,-0" stroke="#000000"/><text class="st1"><tspan y="-13.4" x="91.5">核心能</tspan><tspan y="9.6" x="107.5">力</tspan></text></g><path fill="none" id="shape11" transform="matrix(-0.81,0.59,-0.59,-0.81,1028.1,1343.2)" d="M0,-0L179.3,-0" stroke="#000000"/><path fill="none" id="shape12" transform="matrix(0.27,0.96,-0.96,0.27,1028.1,1343.2)" d="M0,-0L169.1,-0" stroke="#000000"/><path fill="none" id="shape13" transform="matrix(0.87,0.49,-0.49,0.87,1028.1,1343.2)" d="M0,-0L216.6,-0" stroke="#000000"/><g id="shape14" transform="matrix(-0.95,0.32,-0.32,-0.95,1028.1,1113.2)"><path fill="none" d="M0,-0L316.1,-0" stroke="#000000"/><text class="st1"><tspan y="-24.9" x="126">铁饭碗＋</tspan><tspan y="-1.9" x="126">兴趣爱好</tspan><tspan y="21.1" x="142">组合</tspan></text></g><path fill="none" id="shape15" transform="matrix(0.61,-0.79,0.79,0.61,655.7,1355.9)" d="M0,-0L120.4,-0" stroke="#000000"/><g id="shape16" transform="matrix(0.99,0.11,-0.11,0.99,339.5,1132.4)"><path fill="none" d="M0,-0L177.5,-0" stroke="#000000"/><text class="st1"><tspan y="-1.9" x="73.2">探索</tspan></text></g><g id="shape17" transform="matrix(-0.55,0.84,-0.84,-0.55,515.9,1190)"><path fill="none" d="M0,-0L94.7,-0" stroke="#000000"/><text class="st1"><tspan y="-13.4" x="39.3">热</tspan><tspan y="9.6" x="39.3">爱</tspan></text></g><g id="shape18" transform="matrix(0.98,0.21,-0.21,0.98,482,993.2)"><path fill="none" d="M0,-0L559.1,-0" stroke="#000000"/><text class="st1"><tspan y="-1.9" x="232.1">主动抓住机会</tspan></text></g><g id="shape19" transform="translate(558.41,909.08)"><text class="st2"><tspan y="75.1" x="32.3">副业赚钱</tspan></text></g><g transform="translate(1300.78,1327.83)"><path fill="#f29952" id="shape20" d="M0,35.4C0,15.9,15.9,0,35.4,0C55,0,70.9,15.9,70.9,35.4C70.9,55,55,70.9,35.4,70.9C15.9,70.9,0,55,0,35.4z"/><path fill="#f29952" id="shape21" d="M0,35.4C0,15.9,15.9,0,35.4,0C55,0,70.9,15.9,70.9,35.4C70.9,55,55,70.9,35.4,70.9C15.9,70.9,0,55,0,35.4z"/><text class="st1"><tspan y="31.4" x="11.4">清单能</tspan><tspan y="54.4" x="27.4">力</tspan></text></g><g transform="translate(1386.57,1073.09)"><path fill="#f29952" id="shape22" d="M0,40.1C0,17.9,30.7,0,68.5,0C106.3,0,137,17.9,137,40.1C137,62.3,106.3,80.2,68.5,80.2C30.7,80.2,0,62.3,0,40.1z"/><path fill="url(#rg1)" id="shape23" transform="translate(3.23,1.91)" d="M0,38.2C0,17.1,29.2,0,65.3,0C101.3,0,130.5,17.1,130.5,38.2C130.5,59.3,101.3,76.4,65.3,76.4C29.2,76.4,0,59.3,0,38.2z"/><text class="st1"><tspan y="47.6" x="29">左右脑组合</tspan></text></g><g transform="translate(982.76,1297.87)"><path fill="#46ba7d" id="shape24" d="M0,45.4C0,20.3,20.3,0,45.4,0C70.4,0,90.7,20.3,90.7,45.4C90.7,70.4,70.4,90.7,45.4,90.7C20.3,90.7,0,70.4,0,45.4z"/><path fill="url(#rg2)" id="shape25" transform="translate(2.14,2.17)" d="M0,43.2C0,19.3,19.3,0,43.2,0C67.1,0,86.4,19.3,86.4,43.2C86.4,67,67.1,86.4,43.2,86.4C19.3,86.4,0,67,0,43.2z"/><text class="st1"><tspan y="52.9" x="17.4">6个维度</tspan></text></g><g transform="translate(683.5,1169.65)"><path fill="#e6609d" id="shape26" d="M0,45.4C0,20.3,20.3,0,45.4,0C70.4,0,90.7,20.3,90.7,45.4C90.7,70.4,70.4,90.7,45.4,90.7C20.3,90.7,0,70.4,0,45.4z"/><path fill="url(#rg2)" id="shape27" transform="translate(2.14,2.17)" d="M0,43.2C0,19.3,19.3,0,43.2,0C67.1,0,86.4,19.3,86.4,43.2C86.4,67,67.1,86.4,43.2,86.4C19.3,86.4,0,67,0,43.2z"/><text class="st1"><tspan y="52.9" x="13.4">财务来源</tspan></text></g><g transform="translate(300.99,1093.91)"><path fill="#7fb80e" id="shape28" d="M0,38.5C0,17.2,17.2,0,38.5,0C59.8,0,77,17.2,77,38.5C77,59.8,59.8,77,38.5,77C17.2,77,0,59.8,0,38.5z"/><path fill="#7fb80e" id="shape29" d="M0,38.5C0,17.2,17.2,0,38.5,0C59.8,0,77,17.2,77,38.5C77,59.8,59.8,77,38.5,77C17.2,77,0,59.8,0,38.5z"/><text class="st1"><tspan y="46" x="23">梦想</tspan></text></g><g transform="translate(440.19,951.38)"><path fill="#ffa07a" id="shape30" d="M0,41.8C0,18.7,18.7,0,41.8,0C64.9,0,83.6,18.7,83.6,41.8C83.6,64.9,64.9,83.6,41.8,83.6C18.7,83.6,0,64.9,0,41.8z"/><path fill="#ffa07a" id="shape31" d="M0,41.8C0,18.7,18.7,0,41.8,0C64.9,0,83.6,18.7,83.6,41.8C83.6,64.9,64.9,83.6,41.8,83.6C18.7,83.6,0,64.9,0,41.8z"/><text class="st1"><tspan y="37.8" x="10.3">主观能动</tspan><tspan y="60.8" x="34.3">性</tspan></text></g><g id="shape32" transform="matrix(1,-0.07,0.07,1,515.9,1151.6)"><path fill="none" d="M0,-0L513.6,-0" stroke="#000000"/><text class="st1"><tspan y="-1.9" x="208.8">主动抓住机会</tspan></text></g><g transform="translate(477.5,1113.22)"><path fill="#bed742" id="shape33" d="M0,38.4C0,17.2,17.2,0,38.4,0C59.6,0,76.8,17.2,76.8,38.4C76.8,59.6,59.6,76.8,38.4,76.8C17.2,76.8,0,59.6,0,38.4z"/><path fill="#bed742" id="shape34" d="M0,38.4C0,17.2,17.2,0,38.4,0C59.6,0,76.8,17.2,76.8,38.4C76.8,59.6,59.6,76.8,38.4,76.8C17.2,76.8,0,59.6,0,38.4z"/><text class="st1"><tspan y="45.9" x="22.4">兴趣</tspan></text></g><g transform="translate(425,1269.17)"><path fill="#fed6e5" id="shape35" d="M0,39C0,17.5,17.5,0,39,0C60.5,0,78,17.5,78,39C78,60.5,60.5,78,39,78C17.5,78,0,60.5,0,39z"/><path fill="#fed6e5" id="shape36" d="M0,39C0,17.5,17.5,0,39,0C60.5,0,78,17.5,78,39C78,60.5,60.5,78,39,78C17.5,78,0,60.5,0,39z"/><text class="st1"><tspan y="46.5" x="23.5">生活</tspan></text></g><g transform="translate(612.92,1313.19)"><path fill="#ef7b70" id="shape37" d="M0,42.8C0,19.1,19.1,0,42.8,0C66.4,0,85.5,19.1,85.5,42.8C85.5,66.4,66.4,85.5,42.8,85.5C19.1,85.5,0,66.4,0,42.8z"/><path fill="#ef7b70" id="shape38" d="M0,42.8C0,19.1,19.1,0,42.8,0C66.4,0,85.5,19.1,85.5,42.8C85.5,66.4,66.4,85.5,42.8,85.5C19.1,85.5,0,66.4,0,42.8z"/><text class="st1"><tspan y="50.3" x="11.3">本职工作</tspan></text></g><g transform="translate(1432.86,1391.35)"><path fill="#f29952" id="shape39" d="M0,45.4C0,20.3,20.3,0,45.4,0C70.4,0,90.7,20.3,90.7,45.4C90.7,70.4,70.4,90.7,45.4,90.7C20.3,90.7,0,70.4,0,45.4z"/><path fill="url(#rg2)" id="shape40" transform="translate(2.14,2.17)" d="M0,43.2C0,19.3,19.3,0,43.2,0C67.1,0,86.4,19.3,86.4,43.2C86.4,67,67.1,86.4,43.2,86.4C19.3,86.4,0,67,0,43.2z"/><text class="st1"><tspan y="29.9" x="16.4">先天+后</tspan><tspan y="52.9" x="11.4">天:做最擅</tspan><tspan y="75.9" x="21.4">长的事</tspan></text></g><g transform="translate(837.69,1403.23)"><path fill="#46ba7d" id="shape41" d="M0,45.1C0,20.2,20.2,0,45.1,0C70,0,90.2,20.2,90.2,45.1C90.2,70,70,90.2,45.1,90.2C20.2,90.2,0,70,0,45.1z"/><path fill="#46ba7d" id="shape42" d="M0,45.1C0,20.2,20.2,0,45.1,0C70,0,90.2,20.2,90.2,45.1C90.2,70,70,90.2,45.1,90.2C20.2,90.2,0,70,0,45.1z"/><text class="st1"><tspan y="52.6" x="21.1">影响力</tspan></text></g><g transform="translate(1027.76,1459.45)"><path fill="#46ba7d" id="shape43" d="M0,46.5C0,20.8,20.8,0,46.5,0C72.1,0,92.9,20.8,92.9,46.5C92.9,72.1,72.1,92.9,46.5,92.9C20.8,92.9,0,72.1,0,46.5z"/><path fill="#46ba7d" id="shape44" d="M0,46.5C0,20.8,20.8,0,46.5,0C72.1,0,92.9,20.8,92.9,46.5C92.9,72.1,72.1,92.9,46.5,92.9C20.8,92.9,0,72.1,0,46.5z"/><text class="st1"><tspan y="54" x="22.5">运营力</tspan></text></g><g transform="translate(1169.85,1403.23)"><path fill="#46ba7d" id="shape45" d="M0,46.8C0,20.9,20.9,0,46.8,0C72.6,0,93.5,20.9,93.5,46.8C93.5,72.6,72.6,93.5,46.8,93.5C20.9,93.5,0,72.6,0,46.8z"/><path fill="#46ba7d" id="shape46" d="M0,46.8C0,20.9,20.9,0,46.8,0C72.6,0,93.5,20.9,93.5,46.8C93.5,72.6,72.6,93.5,46.8,93.5C20.9,93.5,0,72.6,0,46.8z"/><text class="st1"><tspan y="54.3" x="23.3">写作力</tspan></text></g><path fill="none" id="shape47" transform="matrix(1,-0.1,0.1,1,1073.5,1343.2)" d="M0,-0L107.3,-0" stroke="#000000"/><g transform="translate(1180.21,1285.93)"><path fill="#46ba7d" id="shape48" d="M0,46.8C0,20.9,20.9,0,46.8,0C72.6,0,93.5,20.9,93.5,46.8C93.5,72.6,72.6,93.5,46.8,93.5C20.9,93.5,0,72.6,0,46.8z"/><path fill="#46ba7d" id="shape49" d="M0,46.8C0,20.9,20.9,0,46.8,0C72.6,0,93.5,20.9,93.5,46.8C93.5,72.6,72.6,93.5,46.8,93.5C20.9,93.5,0,72.6,0,46.8z"/><text class="st1"><tspan y="54.3" x="23.3">思维力</tspan></text></g><g transform="translate(782.88,1289.24)"><path fill="#46ba7d" id="shape50" d="M0,45.1C0,20.2,20.2,0,45.1,0C70,0,90.2,20.2,90.2,45.1C90.2,70,70,90.2,45.1,90.2C20.2,90.2,0,70,0,45.1z"/><path fill="#46ba7d" id="shape51" d="M0,45.1C0,20.2,20.2,0,45.1,0C70,0,90.2,20.2,90.2,45.1C90.2,70,70,90.2,45.1,90.2C20.2,90.2,0,70,0,45.1z"/><text class="st1"><tspan y="52.6" x="21.1">学习力</tspan></text></g><g transform="translate(920.6,1495.58)"><path fill="#46ba7d" id="shape52" d="M0,45.1C0,20.2,20.2,0,45.1,0C70,0,90.2,20.2,90.2,45.1C90.2,70,70,90.2,45.1,90.2C20.2,90.2,0,70,0,45.1z"/><path fill="#46ba7d" id="shape53" d="M0,45.1C0,20.2,20.2,0,45.1,0C70,0,90.2,20.2,90.2,45.1C90.2,70,70,90.2,45.1,90.2C20.2,90.2,0,70,0,45.1z"/><text class="st1"><tspan y="52.6" x="21.1">时间力</tspan></text></g><path fill="none" id="shape54" transform="matrix(-1,-0.08,0.08,-1,982.8,1343.2)" d="M0,-0L110,-0" stroke="#000000"/><path fill="none" id="shape55" transform="matrix(-0.5,0.86,-0.86,-0.5,1028.1,1388.6)" d="M0,-0L123.9,-0" stroke="#000000"/><g id="shape56" transform="matrix(-0.49,0.87,-0.87,-0.49,1233.1,753.2)"><path fill="none" d="M0,-0L414.3,-0" stroke="#000000"/><text class="st1"><tspan y="-1.9" x="159.1">11种变现模式</tspan></text></g><g transform="translate(1562.36,1378.99)"><path fill="#f29952" id="shape57" d="M0,45.4C0,20.3,20.3,0,45.4,0C70.4,0,90.7,20.3,90.7,45.4C90.7,70.4,70.4,90.7,45.4,90.7C20.3,90.7,0,70.4,0,45.4z"/><path fill="url(#rg2)" id="shape58" transform="translate(2.14,2.17)" d="M0,43.2C0,19.3,19.3,0,43.2,0C67.1,0,86.4,19.3,86.4,43.2C86.4,67,67.1,86.4,43.2,86.4C19.3,86.4,0,67,0,43.2z"/><text class="st1"><tspan y="52.9" x="13.4">复利思维</tspan></text></g><g transform="translate(1691.86,1378.99)"><path fill="#f29952" id="shape59" d="M0,45.4C0,20.3,20.3,0,45.4,0C70.4,0,90.7,20.3,90.7,45.4C90.7,70.4,70.4,90.7,45.4,90.7C20.3,90.7,0,70.4,0,45.4z"/><path fill="url(#rg2)" id="shape60" transform="translate(2.14,2.17)" d="M0,43.2C0,19.3,19.3,0,43.2,0C67.1,0,86.4,19.3,86.4,43.2C86.4,67,67.1,86.4,43.2,86.4C19.3,86.4,0,67,0,43.2z"/><text class="st1"><tspan y="29.9" x="8.4">思维>注意</tspan><tspan y="52.9" x="12.4">力>时间></tspan><tspan y="75.9" x="29.4">金钱</tspan></text></g><g transform="translate(1771.21,1285.93)"><path fill="#f29952" id="shape61" d="M0,45.4C0,20.3,20.3,0,45.4,0C70.4,0,90.7,20.3,90.7,45.4C90.7,70.4,70.4,90.7,45.4,90.7C20.3,90.7,0,70.4,0,45.4z"/><path fill="url(#rg2)" id="shape62" transform="translate(2.14,2.17)" d="M0,43.2C0,19.3,19.3,0,43.2,0C67.1,0,86.4,19.3,86.4,43.2C86.4,67,67.1,86.4,43.2,86.4C19.3,86.4,0,67,0,43.2z"/><text class="st1"><tspan y="29.9" x="13.4">消费型思</tspan><tspan y="52.9" x="9.4">维 -> 投资</tspan><tspan y="75.9" x="21.4">型思维</tspan></text></g><g transform="translate(1781.86,1169.65)"><path fill="#f29952" id="shape63" d="M0,45.4C0,20.3,20.3,0,45.4,0C70.4,0,90.7,20.3,90.7,45.4C90.7,70.4,70.4,90.7,45.4,90.7C20.3,90.7,0,70.4,0,45.4z"/><path fill="url(#rg2)" id="shape64" transform="translate(2.14,2.17)" d="M0,43.2C0,19.3,19.3,0,43.2,0C67.1,0,86.4,19.3,86.4,43.2C86.4,67,67.1,86.4,43.2,86.4C19.3,86.4,0,67,0,43.2z"/><text class="st1"><tspan y="41.4" x="8.4">写作+教学</tspan><tspan y="64.4" x="8.4">+咨询组合</tspan></text></g><g transform="translate(1711.57,1080.21)"><path fill="#f29952" id="shape65" d="M0,45.4C0,20.3,20.3,0,45.4,0C70.4,0,90.7,20.3,90.7,45.4C90.7,70.4,70.4,90.7,45.4,90.7C20.3,90.7,0,70.4,0,45.4z"/><path fill="url(#rg2)" id="shape66" transform="translate(2.14,2.17)" d="M0,43.2C0,19.3,19.3,0,43.2,0C67.1,0,86.4,19.3,86.4,43.2C86.4,67,67.1,86.4,43.2,86.4C19.3,86.4,0,67,0,43.2z"/><text class="st1"><tspan y="41.4" x="13.4">脑力＋体</tspan><tspan y="64.4" x="21.4">力组合</tspan></text></g><g transform="translate(1572.21,1032.72)"><path fill="#f29952" id="shape67" d="M0,45.4C0,20.3,20.3,0,45.4,0C70.4,0,90.7,20.3,90.7,45.4C90.7,70.4,70.4,90.7,45.4,90.7C20.3,90.7,0,70.4,0,45.4z"/><path fill="url(#rg2)" id="shape68" transform="translate(2.14,2.17)" d="M0,43.2C0,19.3,19.3,0,43.2,0C67.1,0,86.4,19.3,86.4,43.2C86.4,67,67.1,86.4,43.2,86.4C19.3,86.4,0,67,0,43.2z"/><text class="st1"><tspan y="29.9" x="13.4">铁饭碗＋</tspan><tspan y="52.9" x="13.4">兴趣爱好</tspan><tspan y="75.9" x="29.4">组合</tspan></text></g><path fill="none" id="shape69" transform="matrix(-0.69,0.72,-0.72,-0.69,1617.6,1123.4)" d="M0,-0L157.8,-0" stroke="#000000"/><path fill="none" id="shape70" transform="matrix(0.85,0.53,-0.53,0.85,1508.1,1237.1)" d="M0,-0L269.5,-0" stroke="#000000"/><path fill="none" id="shape71" transform="matrix(0.57,0.82,-0.82,0.57,1508.1,1237.1)" d="M0,-0L173.4,-0" stroke="#000000"/><path fill="none" id="shape72" transform="matrix(-1,0.08,-0.08,-1,1781.9,1215)" d="M0,-0L274.6,-0" stroke="#000000"/><path fill="none" id="shape73" transform="matrix(-0.88,0.48,-0.48,-0.88,1711.6,1125.6)" d="M0,-0L232,-0" stroke="#000000"/><path fill="none" id="shape74" transform="matrix(-0.94,-0.34,0.34,-0.94,1771.2,1331.3)" d="M0,-0L279.4,-0" stroke="#000000"/><g transform="translate(1095.99,482)"><path fill="#51d1c9" id="shape75" d="M0,45.4C0,20.3,20.3,0,45.4,0C70.4,0,90.7,20.3,90.7,45.4C90.7,70.4,70.4,90.7,45.4,90.7C20.3,90.7,0,70.4,0,45.4z"/><path fill="url(#rg2)" id="shape76" transform="translate(2.14,2.17)" d="M0,43.2C0,19.3,19.3,0,43.2,0C67.1,0,86.4,19.3,86.4,43.2C86.4,67,67.1,86.4,43.2,86.4C19.3,86.4,0,67,0,43.2z"/><text class="st1"><tspan y="52.9" x="13.4">知识付费</tspan></text></g><g transform="translate(1346.21,509.35)"><path fill="#51d1c9" id="shape77" d="M0,45.4C0,20.3,20.3,0,45.4,0C70.4,0,90.7,20.3,90.7,45.4C90.7,70.4,70.4,90.7,45.4,90.7C20.3,90.7,0,70.4,0,45.4z"/><path fill="url(#rg2)" id="shape78" transform="translate(2.14,2.17)" d="M0,43.2C0,19.3,19.3,0,43.2,0C67.1,0,86.4,19.3,86.4,43.2C86.4,67,67.1,86.4,43.2,86.4C19.3,86.4,0,67,0,43.2z"/><text class="st1"><tspan y="52.9" x="29.4">写书</tspan></text></g><g transform="translate(925.21,777.65)"><path fill="#51d1c9" id="shape79" d="M0,45.4C0,20.3,20.3,0,45.4,0C70.4,0,90.7,20.3,90.7,45.4C90.7,70.4,70.4,90.7,45.4,90.7C20.3,90.7,0,70.4,0,45.4z"/><path fill="url(#rg2)" id="shape80" transform="translate(2.14,2.17)" d="M0,43.2C0,19.3,19.3,0,43.2,0C67.1,0,86.4,19.3,86.4,43.2C86.4,67,67.1,86.4,43.2,86.4C19.3,86.4,0,67,0,43.2z"/><text class="st1"><tspan y="52.9" x="29.4">价值</tspan></text></g><g transform="translate(925.21,648)"><path fill="#51d1c9" id="shape81" d="M0,45.4C0,20.3,20.3,0,45.4,0C70.4,0,90.7,20.3,90.7,45.4C90.7,70.4,70.4,90.7,45.4,90.7C20.3,90.7,0,70.4,0,45.4z"/><path fill="url(#rg2)" id="shape82" transform="translate(2.14,2.17)" d="M0,43.2C0,19.3,19.3,0,43.2,0C67.1,0,86.4,19.3,86.4,43.2C86.4,67,67.1,86.4,43.2,86.4C19.3,86.4,0,67,0,43.2z"/><text class="st1"><tspan y="52.9" x="13.4">成就他人</tspan></text></g><g transform="translate(1300.78,933.65)"><path fill="#51d1c9" id="shape83" d="M0,45.4C0,20.3,20.3,0,45.4,0C70.4,0,90.7,20.3,90.7,45.4C90.7,70.4,70.4,90.7,45.4,90.7C20.3,90.7,0,70.4,0,45.4z"/><path fill="url(#rg2)" id="shape84" transform="translate(2.14,2.17)" d="M0,43.2C0,19.3,19.3,0,43.2,0C67.1,0,86.4,19.3,86.4,43.2C86.4,67,67.1,86.4,43.2,86.4C19.3,86.4,0,67,0,43.2z"/><text class="st1"><tspan y="52.9" x="29.4">演讲</tspan></text></g><g transform="translate(1464.21,720.65)"><path fill="#51d1c9" id="shape85" d="M0,45.4C0,20.3,20.3,0,45.4,0C70.4,0,90.7,20.3,90.7,45.4C90.7,70.4,70.4,90.7,45.4,90.7C20.3,90.7,0,70.4,0,45.4z"/><path fill="url(#rg2)" id="shape86" transform="translate(2.14,2.17)" d="M0,43.2C0,19.3,19.3,0,43.2,0C67.1,0,86.4,19.3,86.4,43.2C86.4,67,67.1,86.4,43.2,86.4C19.3,86.4,0,67,0,43.2z"/><text class="st1"><tspan y="52.9" x="29.4">社群</tspan></text></g><g transform="translate(1209.21,482)"><path fill="#51d1c9" id="shape87" d="M0,45.4C0,20.3,20.3,0,45.4,0C70.4,0,90.7,20.3,90.7,45.4C90.7,70.4,70.4,90.7,45.4,90.7C20.3,90.7,0,70.4,0,45.4z"/><path fill="url(#rg2)" id="shape88" transform="translate(2.14,2.17)" d="M0,43.2C0,19.3,19.3,0,43.2,0C67.1,0,86.4,19.3,86.4,43.2C86.4,67,67.1,86.4,43.2,86.4C19.3,86.4,0,67,0,43.2z"/><text class="st1"><tspan y="52.9" x="11.4">流量/广告</tspan></text></g><g transform="translate(982.76,534)"><path fill="#51d1c9" id="shape89" d="M0,45.4C0,20.3,20.3,0,45.4,0C70.4,0,90.7,20.3,90.7,45.4C90.7,70.4,70.4,90.7,45.4,90.7C20.3,90.7,0,70.4,0,45.4z"/><path fill="url(#rg2)" id="shape90" transform="translate(2.14,2.17)" d="M0,43.2C0,19.3,19.3,0,43.2,0C67.1,0,86.4,19.3,86.4,43.2C86.4,67,67.1,86.4,43.2,86.4C19.3,86.4,0,67,0,43.2z"/><text class="st1"><tspan y="52.9" x="13.4">自运营型</tspan></text></g><g transform="translate(1432.86,883.29)"><path fill="#51d1c9" id="shape91" d="M0,45.4C0,20.3,20.3,0,45.4,0C70.4,0,90.7,20.3,90.7,45.4C90.7,70.4,70.4,90.7,45.4,90.7C20.3,90.7,0,70.4,0,45.4z"/><path fill="url(#rg2)" id="shape92" transform="translate(2.14,2.17)" d="M0,43.2C0,19.3,19.3,0,43.2,0C67.1,0,86.4,19.3,86.4,43.2C86.4,67,67.1,86.4,43.2,86.4C19.3,86.4,0,67,0,43.2z"/><text class="st1"><tspan y="52.9" x="13.4">专业咨询</tspan></text></g><g transform="translate(1507.86,578.65)"><path fill="#51d1c9" id="shape93" d="M0,45.4C0,20.3,20.3,0,45.4,0C70.4,0,90.7,20.3,90.7,45.4C90.7,70.4,70.4,90.7,45.4,90.7C20.3,90.7,0,70.4,0,45.4z"/><path fill="url(#rg2)" id="shape94" transform="translate(2.14,2.17)" d="M0,43.2C0,19.3,19.3,0,43.2,0C67.1,0,86.4,19.3,86.4,43.2C86.4,67,67.1,86.4,43.2,86.4C19.3,86.4,0,67,0,43.2z"/><text class="st1"><tspan y="41.4" x="11.4">成长营/训</tspan><tspan y="64.4" x="29.4">练营</tspan></text></g><g transform="translate(1144.86,944.29)"><path fill="#51d1c9" id="shape95" d="M0,45.4C0,20.3,20.3,0,45.4,0C70.4,0,90.7,20.3,90.7,45.4C90.7,70.4,70.4,90.7,45.4,90.7C20.3,90.7,0,70.4,0,45.4z"/><path fill="url(#rg2)" id="shape96" transform="translate(2.14,2.17)" d="M0,43.2C0,19.3,19.3,0,43.2,0C67.1,0,86.4,19.3,86.4,43.2C86.4,67,67.1,86.4,43.2,86.4C19.3,86.4,0,67,0,43.2z"/><text class="st1"><tspan y="52.9" x="29.4">写作</tspan></text></g><path fill="none" id="shape97" transform="matrix(-0.77,0.64,-0.64,-0.77,965.7,1585.8)" d="M0,-0L73.4,-0" stroke="#000000"/><g transform="translate(864.21,1632.88)"><path fill="#19cbb1" id="shape98" d="M0,45.1C0,20.2,20.2,0,45.1,0C70,0,90.2,20.2,90.2,45.1C90.2,70,70,90.2,45.1,90.2C20.2,90.2,0,70,0,45.1z"/><path fill="#19cbb1" id="shape99" d="M0,45.1C0,20.2,20.2,0,45.1,0C70,0,90.2,20.2,90.2,45.1C90.2,70,70,90.2,45.1,90.2C20.2,90.2,0,70,0,45.1z"/><text class="st1"><tspan y="52.6" x="13.1">时间管理</tspan></text></g><g transform="translate(683.98,1424.88)"><path fill="#00ae9d" id="shape100" d="M0,45.1C0,20.2,20.2,0,45.1,0C70,0,90.2,20.2,90.2,45.1C90.2,70,70,90.2,45.1,90.2C20.2,90.2,0,70,0,45.1z"/><path fill="#00ae9d" id="shape101" d="M0,45.1C0,20.2,20.2,0,45.1,0C70,0,90.2,20.2,90.2,45.1C90.2,70,70,90.2,45.1,90.2C20.2,90.2,0,70,0,45.1z"/><text class="st1"><tspan y="52.6" x="13.1">阅读能力</tspan></text></g><path fill="none" id="shape102" transform="matrix(-0.51,0.86,-0.86,-0.51,782.9,1334.4)" d="M0,-0L105.3,-0" stroke="#000000"/><g transform="translate(470.13,616.38)"><path fill="#30c9f7" id="shape103" d="M0,41.8C0,18.7,18.7,0,41.8,0C64.9,0,83.6,18.7,83.6,41.8C83.6,64.9,64.9,83.6,41.8,83.6C18.7,83.6,0,64.9,0,41.8z"/><path fill="#30c9f7" id="shape104" d="M0,41.8C0,18.7,18.7,0,41.8,0C64.9,0,83.6,18.7,83.6,41.8C83.6,64.9,64.9,83.6,41.8,83.6C18.7,83.6,0,64.9,0,41.8z"/><text class="st1"><tspan y="49.3" x="26.3">思维</tspan></text></g><g transform="translate(970.41,1055.51)"><path fill="#fec553" id="shape105" d="M0,57.7C0,25.8,25.8,0,57.7,0C89.6,0,115.4,25.8,115.4,57.7C115.4,89.6,89.6,115.4,57.7,115.4C25.8,115.4,0,89.6,0,57.7z"/><path fill="#fec553" id="shape106" d="M0,57.7C0,25.8,25.8,0,57.7,0C89.6,0,115.4,25.8,115.4,57.7C115.4,89.6,89.6,115.4,57.7,115.4C25.8,115.4,0,89.6,0,57.7z"/><text class="st1"><tspan y="65.2" x="26.2">副业赚钱</tspan></text></g><g transform="translate(766.59,616.38)"><path fill="#ffaf00" id="shape107" d="M0,41.8C0,18.7,18.7,0,41.8,0C64.9,0,83.6,18.7,83.6,41.8C83.6,64.9,64.9,83.6,41.8,83.6C18.7,83.6,0,64.9,0,41.8z"/><path fill="#ffaf00" id="shape108" d="M0,41.8C0,18.7,18.7,0,41.8,0C64.9,0,83.6,18.7,83.6,41.8C83.6,64.9,64.9,83.6,41.8,83.6C18.7,83.6,0,64.9,0,41.8z"/><text class="st1"><tspan y="49.3" x="26.3">金钱</tspan></text></g><g transform="translate(533.21,784.73)"><path fill="#f9ca31" id="shape109" d="M0,41.8C0,18.7,18.7,0,41.8,0C64.9,0,83.6,18.7,83.6,41.8C83.6,64.9,64.9,83.6,41.8,83.6C18.7,83.6,0,64.9,0,41.8z"/><path fill="#f9ca31" id="shape110" d="M0,41.8C0,18.7,18.7,0,41.8,0C64.9,0,83.6,18.7,83.6,41.8C83.6,64.9,64.9,83.6,41.8,83.6C18.7,83.6,0,64.9,0,41.8z"/><text class="st1"><tspan y="49.3" x="18.3">注意力</tspan></text></g><g transform="translate(704.59,809.38)"><path fill="#ffec00" id="shape111" d="M0,41.8C0,18.7,18.7,0,41.8,0C64.9,0,83.6,18.7,83.6,41.8C83.6,64.9,64.9,83.6,41.8,83.6C18.7,83.6,0,64.9,0,41.8z"/><path fill="#ffec00" id="shape112" d="M0,41.8C0,18.7,18.7,0,41.8,0C64.9,0,83.6,18.7,83.6,41.8C83.6,64.9,64.9,83.6,41.8,83.6C18.7,83.6,0,64.9,0,41.8z"/><text class="st1"><tspan y="49.3" x="26.3">时间</tspan></text></g><g transform="translate(1056.98,1632.88)"><path fill="#19cbb1" id="shape113" d="M0,45.1C0,20.2,20.2,0,45.1,0C70,0,90.2,20.2,90.2,45.1C90.2,70,70,90.2,45.1,90.2C20.2,90.2,0,70,0,45.1z"/><path fill="#19cbb1" id="shape114" d="M0,45.1C0,20.2,20.2,0,45.1,0C70,0,90.2,20.2,90.2,45.1C90.2,70,70,90.2,45.1,90.2C20.2,90.2,0,70,0,45.1z"/><text class="st1"><tspan y="52.6" x="13.1">自我营销</tspan></text></g><g transform="translate(1464.21,1193.13)"><path fill="#f29952" id="shape115" d="M0,43.9C0,19.7,19.7,0,43.9,0C68.2,0,87.9,19.7,87.9,43.9C87.9,68.2,68.2,87.9,43.9,87.9C19.7,87.9,0,68.2,0,43.9z"/><path fill="#f29952" id="shape116" d="M0,43.9C0,19.7,19.7,0,43.9,0C68.2,0,87.9,19.7,87.9,43.9C87.9,68.2,68.2,87.9,43.9,87.9C19.7,87.9,0,68.2,0,43.9z"/><text class="st1"><tspan y="51.4" x="12.4">赚钱本领</tspan></text></g><g id="shape117" transform="translate(1233.05,753.18)"><path fill="none" d="M0,0L-258.2,68.7" stroke="#236ea1"/><path fill="#236ea1" stroke-width="1" stroke-linecap="round" d="M-262.5,69.8L-256.7,71.4C-257.4,70.7,-258,69.8,-258.2,68.7C-258.5,67.6,-258.5,66.6,-258.2,65.6L-262.5,69.8" stroke="#236ea1"/></g><g id="shape118" transform="translate(1233.05,753.18)"><path fill="none" d="M0,0L-212.9,-58.7" stroke="#236ea1"/><path fill="#236ea1" stroke-width="1" stroke-linecap="round" d="M-217.1,-59.8L-212.9,-55.6C-213.2,-56.5,-213.2,-57.6,-212.9,-58.7C-212.6,-59.7,-212.1,-60.6,-211.3,-61.3L-217.1,-59.8" stroke="#236ea1"/></g><g id="shape119" transform="translate(1233.05,753.18)"><path fill="none" d="M0,0L-156.6,-170.6" stroke="#236ea1"/><path fill="#236ea1" stroke-width="1" stroke-linecap="round" d="M-159.6,-173.8L-158.3,-168C-158,-168.9,-157.4,-169.8,-156.6,-170.6C-155.8,-171.3,-154.9,-171.8,-153.9,-172L-159.6,-173.8" stroke="#236ea1"/></g><g id="shape120" transform="translate(1233.05,753.18)"><path fill="none" d="M0,0L-89.7,-176.6" stroke="#236ea1"/><path fill="#236ea1" stroke-width="1" stroke-linecap="round" d="M-91.7,-180.5L-92,-174.5C-91.5,-175.3,-90.7,-176.1,-89.7,-176.6C-88.7,-177,-87.7,-177.3,-86.7,-177.2L-91.7,-180.5" stroke="#236ea1"/></g><g id="shape121" transform="translate(1233.05,753.18)"><path fill="none" d="M0,0L21,-176.1" stroke="#236ea1"/><path fill="#236ea1" stroke-width="1" stroke-linecap="round" d="M21.5,-180.5L17.9,-175.7C18.9,-176.1,19.9,-176.2,21,-176.1C22.1,-176,23.1,-175.6,23.9,-175L21.5,-180.5" stroke="#236ea1"/></g><g id="shape122" transform="translate(1233.05,753.18)"><path fill="none" d="M0,0L155.4,-150.1" stroke="#236ea1"/><path fill="#236ea1" stroke-width="1" stroke-linecap="round" d="M158.5,-153.1L152.7,-151.7C153.7,-151.4,154.6,-150.8,155.4,-150.1C156.1,-149.3,156.6,-148.3,156.9,-147.3L158.5,-153.1" stroke="#236ea1"/></g><g id="shape123" transform="translate(1233.05,753.18)"><path fill="none" d="M0,0L270.8,-127.3" stroke="#236ea1"/><path fill="#236ea1" stroke-width="1" stroke-linecap="round" d="M274.8,-129.2L268.8,-129.7C269.7,-129.1,270.4,-128.3,270.8,-127.3C271.3,-126.3,271.5,-125.3,271.4,-124.3L274.8,-129.2" stroke="#236ea1"/></g><g id="shape124" transform="translate(1233.05,753.18)"><path fill="none" d="M0,0L226.8,12.6" stroke="#236ea1"/><path fill="#236ea1" stroke-width="1" stroke-linecap="round" d="M231.2,12.8L226.1,9.5C226.6,10.4,226.8,11.5,226.8,12.6C226.7,13.7,226.4,14.7,225.8,15.5L231.2,12.8" stroke="#236ea1"/></g><g id="shape125" transform="translate(1233.05,753.18)"><path fill="none" d="M0,0L-41.9,186.8" stroke="#236ea1"/><path fill="#236ea1" stroke-width="1" stroke-linecap="round" d="M-42.8,191.1L-38.8,186.7C-39.7,187,-40.8,187.1,-41.9,186.8C-42.9,186.6,-43.9,186.1,-44.6,185.4L-42.8,191.1" stroke="#236ea1"/></g><g id="shape126" transform="translate(1233.05,753.18)"><path fill="none" d="M0,0L110.8,176.7" stroke="#236ea1"/><path fill="#236ea1" stroke-width="1" stroke-linecap="round" d="M113.1,180.5L112.9,174.5C112.4,175.4,111.7,176.2,110.8,176.7C109.8,177.3,108.8,177.6,107.8,177.7L113.1,180.5" stroke="#236ea1"/></g><g id="shape127" transform="translate(1233.05,753.18)"><path fill="none" d="M0,0L241.3,128.1" stroke="#236ea1"/><path fill="#236ea1" stroke-width="1" stroke-linecap="round" d="M245.2,130.1L242,125C242,126,241.8,127.1,241.3,128.1C240.8,129,240,129.8,239.2,130.3L245.2,130.1" stroke="#236ea1"/></g><g transform="translate(1187.7,707.82)"><path fill="#00ae9d" id="shape128" d="M0,45.4C0,20.3,20.3,0,45.4,0C70.4,0,90.7,20.3,90.7,45.4C90.7,70.4,70.4,90.7,45.4,90.7C20.3,90.7,0,70.4,0,45.4z"/><path fill="url(#rg2)" id="shape129" transform="translate(2.14,2.17)" d="M0,43.2C0,19.3,19.3,0,43.2,0C67.1,0,86.4,19.3,86.4,43.2C86.4,67,67.1,86.4,43.2,86.4C19.3,86.4,0,67,0,43.2z"/><text class="st1"><tspan y="52.9" x="13.4">变现模式</tspan></text></g></g></svg>