<svg width="2255" xmlns:ev="http://www.w3.org/2001/xml-events" viewBox="0 0 2255 1597" height="1597" xmlns="http://www.w3.org/2000/svg" xmlns:xlink="http://www.w3.org/1999/xlink"><style type="text/css"><![CDATA[
.st13 {fill:#000000;font-family:Arial;font-size:12.75pt}
.st2 {fill:#000000;font-family:Arial;font-size:12pt}
.st9 {fill:#000000;font-family:Arial;font-size:14.25pt}
.st3 {fill:#000000;font-family:Arial;font-size:16.5pt}
.st10 {fill:#000000;font-family:Arial;font-size:18pt}
.st6 {fill:#000000;font-family:Arial;font-size:19.5pt}
.st8 {fill:#000000;font-family:Arial;font-size:20.25pt}
.st7 {fill:#000000;font-family:Arial;font-size:23.25pt}
.st11 {fill:#000000;font-family:Arial;font-size:24pt}
.st5 {fill:#000000;font-family:Arial;font-size:29.25pt}
.st4 {fill:#1f6391;font-family:Arial;font-size:25.5pt}
.st1 {fill:#1f6391;font-family:宋体;font-size:7.5pt}
.st12 {fill:#236ea1;font-family:Apple Symbols;font-size:18.75pt}
.st15 {fill:#ffffff;font-family:宋体;font-size:15.75pt}
.st14 {fill:#ffffff;font-family:宋体;font-size:15pt}
]]></style><defs><radialGradient cy="0" fy="0" fx="0" id="rg1" cx="0" r="201.4" gradientUnits="userSpaceOnUse"><stop offset="0" stop-color="#ffffff" stop-opacity="0.4"/><stop offset="0.86" stop-color="#ffffff" stop-opacity="0"/><stop offset="1" stop-color="#ffffff" stop-opacity="0"/></radialGradient><radialGradient cy="0" fy="0" fx="0" id="rg2" cx="0" r="225.8" gradientUnits="userSpaceOnUse"><stop offset="0" stop-color="#ffffff" stop-opacity="0.4"/><stop offset="0.7" stop-color="#ffffff" stop-opacity="0"/><stop offset="1" stop-color="#ffffff" stop-opacity="0"/></radialGradient><radialGradient cy="0" fy="0" fx="0" id="rg3" cx="0" r="205.2" gradientUnits="userSpaceOnUse"><stop offset="0" stop-color="#ffffff" stop-opacity="0.4"/><stop offset="0.7" stop-color="#ffffff" stop-opacity="0"/><stop offset="1" stop-color="#ffffff" stop-opacity="0"/></radialGradient><radialGradient cy="0" fy="0" fx="0" id="rg4" cx="0" r="168.5" gradientUnits="userSpaceOnUse"><stop offset="0" stop-color="#ffffff" stop-opacity="0.4"/><stop offset="0.7" stop-color="#ffffff" stop-opacity="0"/><stop offset="1" stop-color="#ffffff" stop-opacity="0"/></radialGradient><radialGradient cy="0" fy="0" fx="0" id="rg5" cx="0" r="202.5" gradientUnits="userSpaceOnUse"><stop offset="0" stop-color="#ffffff" stop-opacity="0.4"/><stop offset="0.7" stop-color="#ffffff" stop-opacity="0"/><stop offset="1" stop-color="#ffffff" stop-opacity="0"/></radialGradient></defs><g id="page1" transform="translate(5,5)"><rect fill="#fff9f4" width="2245" y="0" height="1587" stroke="#808080" x="0"/><g id="shape1" transform="translate(980.56,422.24)"><path fill="none" d="M0,0L-253,-247.5" stroke="#236ea1"/><path fill="#236ea1" stroke-width="1" stroke-linecap="round" d="M-256.1,-250.6L-254.5,-244.8C-254.3,-245.8,-253.8,-246.8,-253,-247.5C-252.2,-248.3,-251.3,-248.9,-250.3,-249.1L-256.1,-250.6" stroke="#236ea1"/><rect fill="#ffffff" width="61.3" y="-131.3" height="12" x="-158"/><text class="st1"><tspan y="-121.3" x="-158.1">运营数据能力</tspan></text></g><path fill="none" id="shape2" transform="matrix(-0.33,0.94,-0.94,-0.33,1418.2,403.4)" d="M0,-0L219.6,-0" stroke="#000000"/><g id="shape3" transform="matrix(-0,1,-1,-0,1855.2,349.8)"><path fill="none" d="M0,-0L87.1,-0" stroke="#000000"/><text class="st2"><tspan y="-13.4" x="35.5">打</tspan><tspan y="9.6" x="35.5">破</tspan></text></g><path fill="none" id="shape4" transform="matrix(0.36,0.93,-0.93,0.36,1855.2,558.1)" d="M0,-0L52.4,-0" stroke="#000000"/><g id="shape5" transform="matrix(0.89,0.46,-0.46,0.89,1855.2,497.5)"><path fill="none" d="M0,-0L238.3,-0" stroke="#000000"/><text class="st2"><tspan y="-1.9" x="103.6">打破</tspan></text></g><path fill="none" id="shape6" transform="matrix(-0.92,-0.39,0.39,-0.92,1874,672.5)" d="M0,-0L230.1,-0" stroke="#000000"/><g id="shape7" transform="matrix(1,-0.09,0.09,1,1345.1,610.5)"><path fill="none" d="M0,-0L318.7,-0" stroke="#000000"/><text class="st2"><tspan y="-1.9" x="127.9">中台理念</tspan></text></g><g id="shape8" transform="matrix(0.72,0.69,-0.69,0.72,1345.1,610.5)"><path fill="none" d="M0,-0L386.2,-0" stroke="#000000"/><text class="st2"><tspan y="-24.9" x="150.6">拆掉“数据烟</tspan><tspan y="-1.9" x="151.6">囱”, 串联“信</tspan><tspan y="21.1" x="166.6">息孤岛”</tspan></text></g><path fill="none" id="shape9" transform="matrix(-0.93,0.37,-0.37,-0.93,1623.4,878.3)" d="M0,-0L319.1,-0" stroke="#000000"/><path fill="none" id="shape10" transform="matrix(-0.18,0.98,-0.98,-0.18,1623.4,878.3)" d="M0,-0L270.2,-0" stroke="#000000"/><path fill="none" id="shape11" transform="matrix(0.74,0.67,-0.67,0.74,1623.4,878.3)" d="M0,-0L301.7,-0" stroke="#000000"/><g id="shape12" transform="matrix(-0.91,0.42,-0.42,-0.91,1341.6,606.9)"><path fill="none" d="M0,-0L363.6,-0" stroke="#000000"/><text class="st2"><tspan y="-13.4" x="142.3">企业管理数</tspan><tspan y="9.6" x="150.3">字化转型</tspan></text></g><path fill="none" id="shape13" transform="matrix(-0.05,-1,1,-0.05,692,1184.3)" d="M0,-0L306.4,-0" stroke="#000000"/><path fill="none" id="shape14" transform="matrix(-0.31,0.95,-0.95,-0.31,768,597.5)" d="M0,-0L295.3,-0" stroke="#000000"/><g id="shape15" transform="matrix(-0.94,0.34,-0.34,-0.94,1010.9,758.1)"><path fill="none" d="M0,-0L355.3,-0" stroke="#000000"/><text class="st3"><tspan y="-15.4" x="133.7">扁平化、</tspan><tspan y="16.6" x="133.7">网状协同</tspan></text></g><path fill="none" id="shape16" transform="matrix(-0.71,0.7,-0.7,-0.71,676.5,878.3)" d="M0,-0L288.8,-0" stroke="#000000"/><g id="shape17" transform="matrix(0.09,1,-1,0.09,980.6,422.2)"><path fill="none" d="M0,-0L337.2,-0" stroke="#000000"/><text class="st2"><tspan y="-13.4" x="126.1">数字化/智能</tspan><tspan y="9.6" x="161.1">化</tspan></text></g><g id="shape18" transform="translate(130.32,203.95)"><text class="st4"><tspan y="96" x="222.4">政企数字化转型</tspan></text></g><g transform="translate(1238.42,503.78)"><path fill="#fec553" id="shape19" d="M0,106.7C0,47.8,47.8,0,106.7,0C165.7,0,213.4,47.8,213.4,106.7C213.4,165.7,165.7,213.4,106.7,213.4C47.8,213.4,0,165.7,0,106.7z"/><path fill="#fec553" id="shape20" d="M0,106.7C0,47.8,47.8,0,106.7,0C165.7,0,213.4,47.8,213.4,106.7C213.4,165.7,165.7,213.4,106.7,213.4C47.8,213.4,0,165.7,0,106.7z"/><text class="st5"><tspan y="97.7" x="9.2">政企数字化</tspan><tspan y="153.7" x="68.2">转型</tspan></text></g><g transform="translate(1591.65,510.88)"><path fill="#ffec00" id="shape21" d="M0,70.9C0,31.7,31.7,0,70.9,0C110.1,0,141.8,31.7,141.8,70.9C141.8,110.1,110.1,141.8,70.9,141.8C31.7,141.8,0,110.1,0,70.9z"/><path fill="#ffec00" id="shape22" d="M0,70.9C0,31.7,31.7,0,70.9,0C110.1,0,141.8,31.7,141.8,70.9C141.8,110.1,110.1,141.8,70.9,141.8C31.7,141.8,0,110.1,0,70.9z"/><text class="st6"><tspan y="82.9" x="19.4">数字政府</tspan></text></g><g transform="translate(1763.98,242.98)"><path fill="#30c9f7" id="shape23" d="M0,53.4C0,23.9,40.8,0,91.2,0C141.6,0,182.4,23.9,182.4,53.4C182.4,82.9,141.6,106.8,91.2,106.8C40.8,106.8,0,82.9,0,53.4z"/><path fill="url(#rg1)" id="shape24" transform="translate(4.31,2.54)" d="M0,50.9C0,22.8,38.9,0,86.9,0C134.9,0,173.8,22.8,173.8,50.9C173.8,79,134.9,101.8,86.9,101.8C38.9,101.8,0,79,0,50.9z"/><text class="st2"><tspan y="60.9" x="63.2">‘部门墙’</tspan></text></g><g transform="translate(1539.58,794.43)"><path fill="#00af54" id="shape25" d="M0,83.8C0,37.5,37.5,0,83.8,0C130.1,0,167.7,37.5,167.7,83.8C167.7,130.1,130.1,167.7,83.8,167.7C37.5,167.7,0,130.1,0,83.8z"/><path fill="url(#rg2)" id="shape26" transform="translate(3.96,4)" d="M0,79.8C0,35.7,35.8,0,79.9,0C124,0,159.7,35.7,159.7,79.8C159.7,123.9,124,159.6,79.9,159.6C35.8,159.6,0,123.9,0,79.8z"/><text class="st7"><tspan y="75.8" x="22.3">政府治理</tspan><tspan y="120.8" x="22.3">机制改革</tspan></text></g><g transform="translate(934.72,681.91)"><path fill="#e35020" id="shape27" d="M0,76.2C0,34.1,34.1,0,76.2,0C118.2,0,152.3,34.1,152.3,76.2C152.3,118.2,118.2,152.3,76.2,152.3C34.1,152.3,0,118.2,0,76.2z"/><path fill="url(#rg3)" id="shape28" transform="translate(3.6,3.64)" d="M0,72.5C0,32.4,32.5,0,72.6,0C112.7,0,145.2,32.4,145.2,72.5C145.2,112.6,112.7,145.1,72.6,145.1C32.5,145.1,0,112.6,0,72.5z"/><text class="st8"><tspan y="88.7" x="22.2">组织中台</tspan></text></g><g transform="translate(714.87,544.4)"><path fill="#ef7b70" id="shape29" d="M0,53.1C0,23.8,23.8,0,53.1,0C82.4,0,106.2,23.8,106.2,53.1C106.2,82.4,82.4,106.2,53.1,106.2C23.8,106.2,0,82.4,0,53.1z"/><path fill="#ef7b70" id="shape30" d="M0,53.1C0,23.8,23.8,0,53.1,0C82.4,0,106.2,23.8,106.2,53.1C106.2,82.4,82.4,106.2,53.1,106.2C23.8,106.2,0,82.4,0,53.1z"/><text class="st3"><tspan y="63.1" x="42.1">人</tspan></text></g><g transform="translate(417.95,1028.12)"><path fill="#ef7b70" id="shape31" d="M0,53.7C0,24.1,24.1,0,53.7,0C83.4,0,107.5,24.1,107.5,53.7C107.5,83.4,83.4,107.5,53.7,107.5C24.1,107.5,0,83.4,0,53.7z"/><path fill="#ef7b70" id="shape32" d="M0,53.7C0,24.1,24.1,0,53.7,0C83.4,0,107.5,24.1,107.5,53.7C107.5,83.4,83.4,107.5,53.7,107.5C24.1,107.5,0,83.4,0,53.7z"/><text class="st3"><tspan y="63.7" x="43.2">物</tspan></text></g><g transform="translate(633.06,1125.31)"><path fill="#ef7b70" id="shape33" d="M0,59C0,26.4,26.4,0,59,0C91.5,0,117.9,26.4,117.9,59C117.9,91.5,91.5,117.9,59,117.9C26.4,117.9,0,91.5,0,59z"/><path fill="#ef7b70" id="shape34" d="M0,59C0,26.4,26.4,0,59,0C91.5,0,117.9,26.4,117.9,59C117.9,91.5,91.5,117.9,59,117.9C26.4,117.9,0,91.5,0,59z"/><text class="st3"><tspan y="69" x="48.5">场</tspan></text></g><g transform="translate(2004.31,544.4)"><path fill="#30c9f7" id="shape35" d="M0,62.5C0,28,28,0,62.5,0C97.1,0,125.1,28,125.1,62.5C125.1,97.1,97.1,125.1,62.5,125.1C28,125.1,0,97.1,0,62.5z"/><path fill="url(#rg4)" id="shape36" transform="translate(2.95,2.99)" d="M0,59.6C0,26.6,26.7,0,59.6,0C92.5,0,119.2,26.6,119.2,59.6C119.2,92.4,92.5,119.1,59.6,119.1C26.7,119.1,0,92.4,0,59.6z"/><text class="st2"><tspan y="70" x="35">‘数据墙’</tspan></text></g><g transform="translate(1794.6,436.91)"><path fill="#30c9f7" id="shape37" d="M0,60.6C0,27.1,27.1,0,60.6,0C94,0,121.2,27.1,121.2,60.6C121.2,94,94,121.2,60.6,121.2C27.1,121.2,0,94,0,60.6z"/><path fill="#30c9f7" id="shape38" d="M0,60.6C0,27.1,27.1,0,60.6,0C94,0,121.2,27.1,121.2,60.6C121.2,94,94,121.2,60.6,121.2C27.1,121.2,0,94,0,60.6z"/><text class="st9"><tspan y="55.6" x="13.1">数据化运营</tspan><tspan y="83.6" x="47.1">2.0</tspan></text></g><g transform="translate(1264.62,933.83)"><path fill="#fec553" id="shape39" d="M0,62.2C0,27.9,27.9,0,62.2,0C96.6,0,124.4,27.9,124.4,62.2C124.4,96.6,96.6,124.4,62.2,124.4C27.9,124.4,0,96.6,0,62.2z"/><path fill="#fec553" id="shape40" d="M0,62.2C0,27.9,27.9,0,62.2,0C96.6,0,124.4,27.9,124.4,62.2C124.4,96.6,96.6,124.4,62.2,124.4C27.9,124.4,0,96.6,0,62.2z"/><text class="st2"><tspan y="69.7" x="38.2">强协同</tspan></text></g><g transform="translate(1511.45,1080.1)"><path fill="#fec553" id="shape41" d="M0,64.1C0,28.7,28.7,0,64.1,0C99.5,0,128.1,28.7,128.1,64.1C128.1,99.5,99.5,128.1,64.1,128.1C28.7,128.1,0,99.5,0,64.1z"/><path fill="#fec553" id="shape42" d="M0,64.1C0,28.7,28.7,0,64.1,0C99.5,0,128.1,28.7,128.1,64.1C128.1,99.5,99.5,128.1,64.1,128.1C28.7,128.1,0,99.5,0,64.1z"/><text class="st2"><tspan y="71.6" x="40.1">提效能</tspan></text></g><g transform="translate(1781.51,1017.37)"><path fill="#fec553" id="shape43" d="M0,64.5C0,28.9,28.9,0,64.5,0C100.1,0,129,28.9,129,64.5C129,100.1,100.1,129,64.5,129C28.9,129,0,100.1,0,64.5z"/><path fill="#fec553" id="shape44" d="M0,64.5C0,28.9,28.9,0,64.5,0C100.1,0,129,28.9,129,64.5C129,100.1,100.1,129,64.5,129C28.9,129,0,100.1,0,64.5z"/><text class="st2"><tspan y="72" x="40.5">促公开</tspan></text></g><path fill="none" id="shape45" transform="matrix(0.27,0.96,-0.96,0.27,593,581.8)" d="M0,-0L308,-0" stroke="#000000"/><g transform="translate(534,522.83)"><path fill="#ef7b70" id="shape46" d="M0,59C0,26.4,26.4,0,59,0C91.5,0,117.9,26.4,117.9,59C117.9,91.5,91.5,117.9,59,117.9C26.4,117.9,0,91.5,0,59z"/><path fill="#ef7b70" id="shape47" d="M0,59C0,26.4,26.4,0,59,0C91.5,0,117.9,26.4,117.9,59C117.9,91.5,91.5,117.9,59,117.9C26.4,117.9,0,91.5,0,59z"/><text class="st3"><tspan y="69" x="48.5">财</tspan></text></g><path fill="none" id="shape48" transform="matrix(1,0.05,-0.05,1,353.1,862.8)" d="M0,-0L323.8,-0" stroke="#000000"/><g transform="translate(294.18,803.8)"><path fill="#ef7b70" id="shape49" d="M0,59C0,26.4,26.4,0,59,0C91.5,0,117.9,26.4,117.9,59C117.9,91.5,91.5,117.9,59,117.9C26.4,117.9,0,91.5,0,59z"/><path fill="#ef7b70" id="shape50" d="M0,59C0,26.4,26.4,0,59,0C91.5,0,117.9,26.4,117.9,59C117.9,91.5,91.5,117.9,59,117.9C26.4,117.9,0,91.5,0,59z"/><text class="st3"><tspan y="69" x="48.5">事</tspan></text></g><path fill="none" id="shape51" transform="matrix(-0.69,-0.72,0.72,-0.69,890.1,1103)" d="M0,-0L310,-0" stroke="#000000"/><g transform="translate(831.11,1044.08)"><path fill="#ef7b70" id="shape52" d="M0,59C0,26.4,26.4,0,59,0C91.5,0,117.9,26.4,117.9,59C117.9,91.5,91.5,117.9,59,117.9C26.4,117.9,0,91.5,0,59z"/><path fill="#ef7b70" id="shape53" d="M0,59C0,26.4,26.4,0,59,0C91.5,0,117.9,26.4,117.9,59C117.9,91.5,91.5,117.9,59,117.9C26.4,117.9,0,91.5,0,59z"/><text class="st3"><tspan y="69" x="15.5">协同办公</tspan></text></g><path fill="none" id="shape54" transform="matrix(0.8,0.6,-0.6,0.8,412.1,679.7)" d="M0,-0L330.7,-0" stroke="#000000"/><g transform="translate(602.05,803.8)"><path fill="#f29952" id="shape55" d="M0,74.5C0,33.3,33.3,0,74.5,0C115.6,0,148.9,33.3,148.9,74.5C148.9,115.6,115.6,148.9,74.5,148.9C33.3,148.9,0,115.6,0,74.5z"/><path fill="#f29952" id="shape56" d="M0,74.5C0,33.3,33.3,0,74.5,0C115.6,0,148.9,33.3,148.9,74.5C148.9,115.6,115.6,148.9,74.5,148.9C33.3,148.9,0,115.6,0,74.5z"/><text class="st10"><tspan y="68.5" x="14.5">企业数字化</tspan><tspan y="103.5" x="50.5">管理</tspan></text></g><g transform="translate(353.14,620.73)"><path fill="#ef7b70" id="shape57" d="M0,59C0,26.4,26.4,0,59,0C91.5,0,117.9,26.4,117.9,59C117.9,91.5,91.5,117.9,59,117.9C26.4,117.9,0,91.5,0,59z"/><path fill="#ef7b70" id="shape58" d="M0,59C0,26.4,26.4,0,59,0C91.5,0,117.9,26.4,117.9,59C117.9,91.5,91.5,117.9,59,117.9C26.4,117.9,0,91.5,0,59z"/><text class="st3"><tspan y="69" x="48.5">法</tspan></text></g><g id="shape59" transform="translate(980.56,422.24)"><path fill="none" d="M0,0L287.6,-250.8" stroke="#236ea1"/><path fill="#236ea1" stroke-width="1" stroke-linecap="round" d="M291,-253.7L285.1,-252.6C286,-252.2,286.9,-251.7,287.6,-250.8C288.4,-250,288.8,-249,289,-248L291,-253.7" stroke="#236ea1"/><rect fill="#ffffff" width="61.3" y="-132.9" height="12" x="115.6"/><text class="st1"><tspan y="-122.9" x="115.5">产品技术能力</tspan></text></g><g transform="translate(899.2,340.88)"><path fill="#007fcc" id="shape60" d="M0,81.4C0,36.4,36.4,0,81.4,0C126.3,0,162.7,36.4,162.7,81.4C162.7,126.3,126.3,162.7,81.4,162.7C36.4,162.7,0,126.3,0,81.4z"/><path fill="#007fcc" id="shape61" d="M0,81.4C0,36.4,36.4,0,81.4,0C126.3,0,162.7,36.4,162.7,81.4C162.7,126.3,126.3,162.7,81.4,162.7C36.4,162.7,0,126.3,0,81.4z"/><text class="st11"><tspan y="96.4" x="17.4">中台战略</tspan></text></g><g transform="translate(1196.36,93.37)"><path fill="#2ca9e0" id="shape62" d="M0,75.2C0,33.6,33.6,0,75.2,0C116.7,0,150.3,33.6,150.3,75.2C150.3,116.6,116.7,150.3,75.2,150.3C33.6,150.3,0,116.6,0,75.2z"/><path fill="url(#rg5)" id="shape63" transform="translate(3.55,3.59)" d="M0,71.6C0,32,32.1,0,71.6,0C111.1,0,143.2,32,143.2,71.6C143.2,111.1,111.1,143.1,71.6,143.1C32.1,143.1,0,111.1,0,71.6z"/><text class="st2"><tspan y="82.7" x="43.2">技术中台</tspan></text></g><g transform="translate(652.37,99.57)"><path fill="#eb6d71" id="shape64" d="M0,72.1C0,32.3,32.3,0,72.1,0C111.8,0,144.1,32.3,144.1,72.1C144.1,111.8,111.8,144.1,72.1,144.1C32.3,144.1,0,111.8,0,72.1z"/><path fill="#eb6d71" id="shape65" d="M0,72.1C0,32.3,32.3,0,72.1,0C111.8,0,144.1,32.3,144.1,72.1C144.1,111.8,111.8,144.1,72.1,144.1C32.3,144.1,0,111.8,0,72.1z"/><text class="st2"><tspan y="79.6" x="40.1">业务中台</tspan></text></g><g id="shape66" transform="translate(534,1276)"><rect fill="#ffffff" width="0" y="-11.5" height="38" x="4.1"/><rect fill="#ffffff" width="1110.9" y="26.5" height="38" x="4.1"/><text class="st12"><tspan y="19.5" x="4">“人、财、法、事、物、场应该是一体化的服务提供者。要建立一体化的服务提供，必须把底层的信</tspan><tspan y="57.5" x="4">息孤岛连接起来。建设中台基础能力，把这些信息连接起来，并且在此基础上支持企业智能决策。”</tspan><tspan y="120.5" x="4">打通阿里巴巴企业人、财、法管理运营和协同系统，做了三件事：1、打通系统主数据；2、在各领域</tspan><tspan y="158.5" x="4">落地中台化标准；3、统一技术并提升交付能力。从此开始从0到1打造组织中台。</tspan><tspan y="221.5" x="4">打通系统主数据，就是把阿里巴巴经济体组织多环境下的人事、财务、空间等核心主数据打通，从而</tspan><tspan y="259.5" x="4">让系统能真正连接、协同起来。</tspan></text></g><path fill="none" id="shape67" transform="matrix(0.07,1,-1,0.07,1874,672.5)" d="M0,-0L167.2,-0" stroke="#000000"/><g transform="translate(1823.44,783.45)"><path fill="#fed372" id="shape68" d="M0,55.9C0,25,27.5,0,61.5,0C95.4,0,122.9,25,122.9,55.9C122.9,86.7,95.4,111.8,61.5,111.8C27.5,111.8,0,86.7,0,55.9z"/><path fill="#fed372" id="shape69" d="M0,55.9C0,25,27.5,0,61.5,0C95.4,0,122.9,25,122.9,55.9C122.9,86.7,95.4,111.8,61.5,111.8C27.5,111.8,0,86.7,0,55.9z"/><text class="st2"><tspan y="63.4" x="24.5">“数据烟囱”</tspan></text></g><path fill="none" id="shape70" transform="matrix(0.92,0.39,-0.39,0.92,1874,672.5)" d="M0,-0L190.8,-0" stroke="#000000"/><g transform="translate(1806.32,606.94)"><path fill="#fed372" id="shape71" d="M0,65.5C0,29.3,30.3,0,67.7,0C105.1,0,135.4,29.3,135.4,65.5C135.4,101.7,105.1,131.1,67.7,131.1C30.3,131.1,0,101.7,0,65.5z"/><path fill="#fed372" id="shape72" d="M0,65.5C0,29.3,30.3,0,67.7,0C105.1,0,135.4,29.3,135.4,65.5C135.4,101.7,105.1,131.1,67.7,131.1C30.3,131.1,0,101.7,0,65.5z"/><text class="st13"><tspan y="73" x="22.2">网上政务1.0</tspan></text></g><g transform="translate(1988.34,690.84)"><path fill="#fed372" id="shape73" d="M0,55.9C0,25,27.5,0,61.5,0C95.4,0,122.9,25,122.9,55.9C122.9,86.7,95.4,111.8,61.5,111.8C27.5,111.8,0,86.7,0,55.9z"/><path fill="#fed372" id="shape74" d="M0,55.9C0,25,27.5,0,61.5,0C95.4,0,122.9,25,122.9,55.9C122.9,86.7,95.4,111.8,61.5,111.8C27.5,111.8,0,86.7,0,55.9z"/><text class="st2"><tspan y="63.4" x="24.5">“信息孤岛”</tspan></text></g><g id="shape75" transform="matrix(-0.99,-0.16,0.16,-0.99,1418.2,403.4)"><path fill="none" d="M0,0L184.6,0" stroke="#236ea1"/><path fill="#236ea1" stroke-width="1" stroke-linecap="round" d="M189,0L183.8,-3C184.3,-2.1,184.6,-1.1,184.6,0C184.6,1.1,184.3,2.1,183.8,3L189,0" stroke="#236ea1"/></g><g id="shape76" transform="translate(1173.61,315.12)"><path fill="#3498db" d="M0,58.6C0,26.2,26.2,0,58.6,0C91,0,117.2,26.2,117.2,58.6C117.2,91,91,117.2,58.6,117.2C26.2,117.2,0,91,0,58.6z" stroke="#3498db"/><text class="st14"><tspan y="66.1" x="29.1">数字化</tspan></text></g><g id="shape77" transform="matrix(0.75,-0.66,0.66,0.75,1418.2,403.4)"><path fill="none" d="M0,0L216.4,0" stroke="#236ea1"/><path fill="#236ea1" stroke-width="1" stroke-linecap="round" d="M220.7,0L215.5,-3C216.1,-2.1,216.4,-1.1,216.4,0C216.4,1.1,216.1,2.1,215.5,3L220.7,0" stroke="#236ea1"/></g><g transform="translate(1355.63,340.88)"><path fill="#51d1c9" id="shape78" d="M0,62.5C0,28,28,0,62.5,0C97.1,0,125.1,28,125.1,62.5C125.1,97.1,97.1,125.1,62.5,125.1C28,125.1,0,97.1,0,62.5z"/><path fill="url(#rg4)" id="shape79" transform="translate(2.95,2.99)" d="M0,59.6C0,26.6,26.7,0,59.6,0C92.5,0,119.2,26.6,119.2,59.6C119.2,92.4,92.5,119.1,59.6,119.1C26.7,119.1,0,92.4,0,59.6z"/><text class="st10"><tspan y="56.5" x="25">What it </tspan><tspan y="84.5" x="47">is?</tspan></text></g><g id="shape80" transform="translate(1539.58,203.95)"><path fill="#1bbc9d" d="M0,51.7C0,23.2,23.2,0,51.7,0C80.3,0,103.4,23.2,103.4,51.7C103.4,80.3,80.3,103.4,51.7,103.4C23.2,103.4,0,80.3,0,51.7z" stroke="#1bbc9d"/><text class="st15"><tspan y="59.7" x="20.2">智能化</tspan></text></g></g></svg>